<svg width="20" height="20" viewBox="0 0 20 20" fill="none" xmlns="http://www.w3.org/2000/svg">
<path d="M14.9194 19.6803L15.5791 19.0252C15.7851 18.819 15.8986 18.5447 15.8986 18.2515C15.8986 17.9585 15.7851 17.6839 15.5791 17.4777L8.10554 10.0045L15.5874 2.52262C15.7934 2.31677 15.9067 2.04213 15.9067 1.74912C15.9067 1.45611 15.7934 1.18131 15.5874 0.975293L14.9318 0.320003C14.5054 -0.106668 13.8109 -0.106668 13.3846 0.320003L4.44453 9.22804C4.23867 9.4339 4.09363 9.70821 4.09363 10.0038V10.0072C4.09363 10.3004 4.23884 10.5747 4.44453 10.7806L13.3604 19.6803C13.5662 19.8865 13.8488 19.9997 14.1418 20C14.435 20 14.7137 19.8865 14.9194 19.6803Z" fill="white"/>
</svg>
