<svg width="20" height="20" viewBox="0 0 20 20" fill="none" xmlns="http://www.w3.org/2000/svg">
<path d="M5.08108 0.319677L4.4214 0.974806C4.21538 1.18099 4.10188 1.4553 4.10188 1.74847C4.10188 2.04148 4.21538 2.31612 4.4214 2.5223L11.895 9.99553L4.4131 17.4774C4.20708 17.6832 4.09375 17.9579 4.09375 18.2509C4.09375 18.5439 4.20708 18.8187 4.4131 19.0247L5.06872 19.68C5.49506 20.1067 6.18954 20.1067 6.61589 19.68L15.556 10.772C15.7618 10.5661 15.9069 10.2918 15.9069 9.99618V9.99276C15.9069 9.69959 15.7617 9.42528 15.556 9.21942L6.64011 0.319677C6.43426 0.113497 6.15165 0.000326157 5.85864 0C5.56547 0 5.28677 0.113497 5.08108 0.319677Z" fill="white"/>
</svg>
