<svg width="20" height="19" viewBox="0 0 20 19" fill="none" xmlns="http://www.w3.org/2000/svg">
<path d="M19.1666 13.1667C19.1666 12.9236 19.07 12.6904 18.8981 12.5185C18.7262 12.3466 18.493 12.25 18.2499 12.25C18.0068 12.25 17.7736 12.3466 17.6017 12.5185C17.4298 12.6904 17.3333 12.9236 17.3333 13.1667V15.9167C17.3333 16.1598 17.2367 16.3929 17.0648 16.5648C16.8929 16.7368 16.6597 16.8333 16.4166 16.8333H3.58325C3.34014 16.8333 3.10698 16.7368 2.93507 16.5648C2.76316 16.3929 2.66659 16.1598 2.66659 15.9167V13.1667C2.66659 12.9236 2.57001 12.6904 2.3981 12.5185C2.22619 12.3466 1.99303 12.25 1.74992 12.25C1.5068 12.25 1.27365 12.3466 1.10174 12.5185C0.929829 12.6904 0.833252 12.9236 0.833252 13.1667V15.9167C0.833252 16.646 1.12298 17.3455 1.63871 17.8612C2.15443 18.3769 2.85391 18.6667 3.58325 18.6667H16.4166C17.1459 18.6667 17.8454 18.3769 18.3611 17.8612C18.8769 17.3455 19.1666 16.646 19.1666 15.9167V13.1667Z" fill="white"/>
<path d="M9.08318 1.24992V11.8833L7.9016 10.6916C7.72776 10.5372 7.50176 10.4546 7.26934 10.4606C7.03692 10.4666 6.81546 10.5606 6.64978 10.7238C6.4841 10.8869 6.3866 11.1068 6.377 11.3391C6.36741 11.5714 6.44644 11.7987 6.5981 11.9749L9.3481 14.7524C9.43335 14.8386 9.53485 14.907 9.64672 14.9537C9.75859 15.0004 9.87862 15.0245 9.99985 15.0245C10.1211 15.0245 10.2411 15.0004 10.353 14.9537C10.4649 14.907 10.5664 14.8386 10.6516 14.7524L13.4016 11.9749C13.5533 11.7987 13.6323 11.5714 13.6227 11.3391C13.6131 11.1068 13.5156 10.8869 13.3499 10.7238C13.1842 10.5606 12.9628 10.4666 12.7304 10.4606C12.4979 10.4546 12.2719 10.5372 12.0981 10.6916L10.9165 11.8833V1.24992C10.9165 1.0068 10.8199 0.773646 10.648 0.601737C10.4761 0.429829 10.243 0.333252 9.99985 0.333252C9.75673 0.333252 9.52358 0.429829 9.35167 0.601737C9.17976 0.773646 9.08318 1.0068 9.08318 1.24992Z" fill="white"/>
</svg>
