<svg width="22" height="22" viewBox="0 0 22 22" fill="none" xmlns="http://www.w3.org/2000/svg">
<path d="M16.3281 0H5.67188C2.54439 0 0 2.54435 0 5.67188V16.3281C0 19.4556 2.54439 22 5.67188 22H16.3281C19.4556 22 22 19.4556 22 16.3281V5.67188C22 2.54435 19.4556 0 16.3281 0ZM20.625 16.3281C20.6237 17.4673 20.1706 18.5595 19.3651 19.3651C18.5595 20.1706 17.4673 20.6237 16.3281 20.625H5.67188C4.53266 20.6237 3.44048 20.1706 2.63493 19.3651C1.82939 18.5595 1.37627 17.4673 1.375 16.3281V5.67188C1.37627 4.53266 1.82939 3.44048 2.63493 2.63493C3.44048 1.82939 4.53266 1.37627 5.67188 1.375H16.3281C17.4673 1.37627 18.5595 1.82939 19.3651 2.63493C20.1706 3.44048 20.6237 4.53266 20.625 5.67188V16.3281ZM16.6719 11C16.6719 11.1823 16.5994 11.3572 16.4705 11.4861C16.3416 11.6151 16.1667 11.6875 15.9844 11.6875H11.6875V15.9844C11.6875 16.1667 11.6151 16.3416 11.4861 16.4705C11.3572 16.5994 11.1823 16.6719 11 16.6719C10.8177 16.6719 10.6428 16.5994 10.5139 16.4705C10.3849 16.3416 10.3125 16.1667 10.3125 15.9844V11.6875H6.01562C5.83329 11.6875 5.65842 11.6151 5.52949 11.4861C5.40056 11.3572 5.32812 11.1823 5.32812 11C5.32812 10.8177 5.40056 10.6428 5.52949 10.5139C5.65842 10.3849 5.83329 10.3125 6.01562 10.3125H10.3125V6.01562C10.3125 5.83329 10.3849 5.65842 10.5139 5.52949C10.6428 5.40056 10.8177 5.32812 11 5.32812C11.1823 5.32812 11.3572 5.40056 11.4861 5.52949C11.6151 5.65842 11.6875 5.83329 11.6875 6.01562V10.3125H15.9844C16.1667 10.3125 16.3416 10.3849 16.4705 10.5139C16.5994 10.6428 16.6719 10.8177 16.6719 11Z" fill="white"/>
</svg>
