<svg width="95" height="40" viewBox="0 0 95 40" fill="none" xmlns="http://www.w3.org/2000/svg">
<g clip-path="url(#clip0_102_31)">
<path d="M0.197456 32.8381V14.742H5.4465V32.8381H0.197456ZM2.83432 12.4082C2.05409 12.4082 1.38494 12.1614 0.825477 11.6664C0.275616 11.1631 0 10.5625 0 9.86322C0 9.16389 0.275616 8.57838 0.825477 8.08474C1.38357 7.5815 2.05409 7.33057 2.83432 7.33057C3.61455 7.33057 4.27959 7.5815 4.83082 8.08474C5.38891 8.57975 5.66864 9.17212 5.66864 9.86322C5.66864 10.5543 5.38891 11.1631 4.83082 11.6664C4.28096 12.1614 3.61455 12.4082 2.83432 12.4082Z" fill="white"/>
<path d="M9.6521 32.8381V14.7421H14.6557V17.9343H14.8778C15.2728 16.8743 15.9296 16.0379 16.8497 15.4249C17.7698 14.812 18.8708 14.5062 20.1516 14.5062C21.4323 14.5062 22.554 14.8161 23.4658 15.4373C24.3777 16.0502 24.9851 16.8826 25.2895 17.9343H25.487C25.8737 16.8976 26.5716 16.0694 27.5822 15.4483C28.6011 14.8202 29.805 14.5062 31.1927 14.5062C32.9588 14.5062 34.3917 15.0437 35.4928 16.1202C36.6022 17.1883 37.1561 18.7035 37.1561 20.6671V32.8368H31.9194V21.6558C31.9194 20.6507 31.6397 19.8965 31.0816 19.3933C30.5235 18.89 29.8242 18.6391 28.9864 18.6391C28.0334 18.6391 27.2902 18.9298 26.7554 19.5112C26.222 20.0844 25.9546 20.8427 25.9546 21.7847V32.8354H20.866V21.5488C20.866 20.6617 20.5986 19.9541 20.0652 19.4276C19.54 18.901 18.8448 18.6377 17.9823 18.6377C17.3995 18.6377 16.873 18.779 16.4054 19.0614C15.946 19.3357 15.5799 19.7251 15.3084 20.2283C15.0369 20.7234 14.9011 21.3048 14.9011 21.9725V32.8354H9.6521V32.8381Z" fill="white"/>
<path d="M49.8288 40C48.1285 40 46.6695 39.7765 45.4546 39.3281C44.2466 38.888 43.2854 38.2874 42.5709 37.525C41.8565 36.7626 41.3917 35.9069 41.1778 34.9567L46.0333 34.3328C46.1814 34.6934 46.4159 35.0321 46.7354 35.3461C47.0548 35.6601 47.4786 35.911 48.0051 36.1003C48.5385 36.2964 49.1885 36.3951 49.9522 36.3951C51.0945 36.3951 52.0351 36.1277 52.7742 35.5943C53.5215 35.0677 53.8959 34.1847 53.8959 32.9437V29.6336H53.6738C53.4434 30.1368 53.0992 30.6113 52.6385 31.0597C52.1791 31.508 51.5867 31.8728 50.8641 32.1553C50.1415 32.4377 49.279 32.579 48.2766 32.579C46.856 32.579 45.5616 32.265 44.3947 31.6369C43.236 31.0007 42.3118 30.0312 41.6221 28.7272C40.9406 27.4149 40.5991 25.7585 40.5991 23.7551C40.5991 21.7518 40.9488 19.9925 41.6467 18.6185C42.3447 17.2446 43.273 16.2148 44.4317 15.5319C45.5986 14.849 46.8752 14.5062 48.2643 14.5062C49.3242 14.5062 50.2114 14.679 50.9258 15.0245C51.6402 15.3619 52.2161 15.7869 52.6508 16.297C53.0951 16.8003 53.4352 17.2939 53.6738 17.7821H53.8712V14.7421H59.0832V33.015C59.0832 34.5549 58.6883 35.8425 57.8999 36.8791C57.1114 37.9158 56.0185 38.6933 54.6226 39.2116C53.2336 39.7381 51.6361 40.0014 49.8288 40.0014V40ZM49.9399 28.8081C50.786 28.8081 51.5004 28.6079 52.0845 28.2075C52.6755 27.7989 53.128 27.2175 53.4393 26.4633C53.7601 25.7009 53.9192 24.7904 53.9192 23.7305C53.9192 22.6705 53.7629 21.7518 53.4502 20.9743C53.1376 20.1886 52.6865 19.5798 52.0955 19.1478C51.5045 18.7159 50.7846 18.4992 49.9385 18.4992C49.0925 18.4992 48.3493 18.7227 47.7569 19.1711C47.1659 19.6113 46.7175 20.2242 46.4131 21.0086C46.1087 21.7943 45.9579 22.7007 45.9579 23.7305C45.9579 24.7602 46.1101 25.679 46.4131 26.44C46.7258 27.1942 47.1728 27.7797 47.7569 28.1952C48.3479 28.6038 49.076 28.8081 49.9385 28.8081H49.9399Z" fill="white"/>
<mask id="mask0_102_31" style="mask-type:luminance" maskUnits="userSpaceOnUse" x="63" y="0" width="32" height="40">
<path d="M94.3209 0H63.7563V39.867H94.3209V0Z" fill="white"/>
</mask>
<g mask="url(#mask0_102_31)">
<path d="M68.4583 19.8595C63.7139 20.1173 64.0979 11.3154 68.5612 11.6157C73.3015 11.8625 73.8185 19.9376 68.4583 19.8595Z" fill="#E82424"/>
<path d="M72.6995 20.9962C72.6159 26.9981 68.9972 29.1838 63.8359 28.7066V23.2327C66.732 24.5422 70.991 24.0047 72.4966 20.9962H72.6995Z" fill="#E82424"/>
<path d="M88.9925 19.8595C84.2467 20.1173 84.632 11.3154 89.094 11.6157C93.8356 11.8639 94.3512 19.9363 88.9925 19.8595Z" fill="#E82424"/>
<path d="M90.6187 39.9657C85.3669 40.0082 73.0314 39.8615 67.6054 39.9246C65.5225 39.9205 63.8359 38.1585 63.8359 35.9864V32.8217C73.1287 33.4277 77.6647 27.9757 77.5331 18.2812C77.5825 13.9371 76.0563 9.68909 72.0043 8.07105C69.4223 7.05223 66.237 7.17838 63.8359 8.53726V4.16717C63.8359 2.002 65.5116 0.244093 67.5876 0.22901C72.716 0.194729 81.5096 0.126168 85.0981 0.0973722C86.1183 0.0905161 87.0988 0.512853 87.8159 1.26977C89.6204 3.17851 91.425 5.08589 93.2309 6.99326C93.7561 7.54861 94.1071 8.25068 94.247 9.00622C93.7355 8.63736 93.1664 8.32198 92.537 8.07105C88.6976 6.55584 83.5212 7.57192 81.5796 11.4127C79.808 14.8696 80.1453 20.8605 83.8353 22.9639C86.7148 24.5998 91.4305 24.1953 93.0293 20.9962H93.2336C93.1376 27.7755 88.5358 29.6857 82.2926 28.3912V32.5981C87.6829 33.4003 91.6828 32.3966 94.3073 29.8708C94.417 33.9159 95.5729 39.6078 90.6187 39.9657Z" fill="#E82424"/>
</g>
</g>
<defs>
<clipPath id="clip0_102_31">
<rect width="94.3211" height="40" fill="white"/>
</clipPath>
</defs>
</svg>
