<svg width="25" height="25" viewBox="0 0 25 25" fill="none" xmlns="http://www.w3.org/2000/svg">
<g clip-path="url(#clip0_1521_123)">
<path d="M12.227 21.9283C12.227 20.6118 11.1598 19.5447 9.84358 19.5447C8.5271 19.5447 7.45996 20.6118 7.45996 21.9281C7.45996 23.2445 8.5271 24.3117 9.84358 24.3117C11.1591 24.3103 12.2255 23.2441 12.227 21.9283ZM8.30537 21.9283C8.30537 21.0786 8.99392 20.3901 9.84358 20.3901C10.693 20.3901 11.3815 21.0786 11.3815 21.9281C11.3815 22.7777 10.693 23.4663 9.84358 23.4663C8.99439 23.4653 8.30632 22.7772 8.30537 21.9283Z" fill="white"/>
<path d="M18.6695 24.3117C19.986 24.3119 21.0531 23.2448 21.0531 21.9283C21.0534 20.6118 19.9862 19.5447 18.6697 19.5447C17.3533 19.5447 16.2861 20.6118 16.2861 21.9283C16.2878 23.2438 17.3537 24.31 18.6695 24.3117ZM18.6695 20.3901C19.5189 20.3901 20.2077 21.0786 20.2077 21.9281C20.2079 22.7775 19.5192 23.4663 18.6697 23.4663C17.8203 23.4663 17.1315 22.7777 17.1315 21.9283C17.1325 21.0793 17.8206 20.3913 18.6695 20.3901Z" fill="white"/>
<path d="M0.422703 0.845426H3.00114C3.84962 0.842124 4.57307 1.4599 4.70234 2.2987L6.74343 15.1919C6.93615 16.442 8.01461 17.3632 9.27965 17.3582H21.8961C22.1294 17.3582 22.3188 17.1688 22.3188 16.9355C22.3188 16.702 22.1294 16.5128 21.8961 16.5128H9.27965C8.43118 16.5161 7.70773 15.8981 7.57846 15.0595L7.23148 12.8675H20.1529C21.247 12.867 22.2207 12.174 22.5792 11.1406L24.9765 4.22162C25.0216 4.09236 25.001 3.94942 24.9218 3.83784C24.8423 3.72651 24.714 3.66022 24.5772 3.66022H5.77372L5.53736 2.16637C5.34465 0.916191 4.26619 -0.00493366 3.00114 1.98837e-05H0.422703C0.189178 1.98837e-05 0 0.189434 0 0.422723C0 0.656248 0.189178 0.845426 0.422703 0.845426ZM23.9832 4.50586L21.7805 10.8636C21.5399 11.5569 20.8868 12.0218 20.1529 12.0221H7.0975L5.90746 4.50563L23.9832 4.50586Z" fill="white"/>
</g>
<defs>
<clipPath id="clip0_1521_123">
<rect width="25" height="25" fill="white"/>
</clipPath>
</defs>
</svg>
