<svg width="31" height="31" viewBox="0 0 31 31" fill="none" xmlns="http://www.w3.org/2000/svg">
<g clip-path="url(#clip0_1678_136)">
<path d="M15.1611 27.1911C15.1611 25.5586 13.8378 24.2354 12.2057 24.2354C10.5733 24.2354 9.25 25.5586 9.25 27.1908C9.25 28.8232 10.5733 30.1464 12.2057 30.1464C13.8369 30.1447 15.1593 28.8226 15.1611 27.1911ZM10.2983 27.1911C10.2983 26.1375 11.1521 25.2837 12.2057 25.2837C13.259 25.2837 14.1128 26.1375 14.1128 27.1908C14.1128 28.2443 13.259 29.0981 12.2057 29.0981C11.1527 29.097 10.2995 28.2438 10.2983 27.1911Z" fill="black"/>
<path d="M23.1497 30.1464C24.7821 30.1467 26.1054 28.8235 26.1054 27.1911C26.1057 25.5586 24.7824 24.2354 23.15 24.2354C21.5176 24.2354 20.1943 25.5586 20.1943 27.1911C20.1964 28.8223 21.5182 30.1444 23.1497 30.1464ZM23.1497 25.2837C24.203 25.2837 25.0571 26.1375 25.0571 27.1908C25.0574 28.244 24.2033 29.0981 23.15 29.0981C22.0967 29.0981 21.2426 28.2443 21.2426 27.1911C21.2438 26.1384 22.097 25.2851 23.1497 25.2837Z" fill="black"/>
<path d="M0.524152 1.04833H3.72142C4.77353 1.04423 5.67061 1.81028 5.8309 2.85039L8.36186 18.8379C8.60083 20.3881 9.93812 21.5303 11.5068 21.5242H27.1512C27.4405 21.5242 27.6753 21.2893 27.6753 21C27.6753 20.7105 27.4405 20.4759 27.1512 20.4759H11.5068C10.4547 20.48 9.55758 19.7136 9.39729 18.6738L8.96703 15.9557H24.9896C26.3462 15.9551 27.5537 15.0957 27.9982 13.8143L30.9709 5.23482C31.0267 5.07453 31.0013 4.89728 30.903 4.75893C30.8044 4.62087 30.6453 4.53868 30.4757 4.53868H7.15941L6.86633 2.6863C6.62736 1.13608 5.29007 -0.00611774 3.72142 2.46557e-05H0.524152C0.234581 2.46557e-05 0 0.234899 0 0.524177C0 0.813747 0.234581 1.04833 0.524152 1.04833ZM29.7392 5.58727L27.0079 13.4709C26.7095 14.3305 25.8996 14.9071 24.9896 14.9073H8.80089L7.32526 5.58698L29.7392 5.58727Z" fill="black"/>
</g>
<defs>
<clipPath id="clip0_1678_136">
<rect width="31" height="31" fill="white"/>
</clipPath>
</defs>
</svg>
