<svg width="12" height="20" viewBox="0 0 12 20" fill="none" xmlns="http://www.w3.org/2000/svg">
<path d="M1.35248 0.67721L1.35414 0.675579C1.46653 0.564671 1.62208 0.500109 1.79238 0.5C1.96521 0.500217 2.12441 0.56609 2.2356 0.675718L2.2362 0.676311L11.2926 9.5756C11.2927 9.57565 11.2927 9.5757 11.2928 9.57574C11.4346 9.71555 11.5 9.86872 11.5 9.99276V9.99618C11.5 10.1234 11.4342 10.2764 11.293 10.4154C11.2929 10.4155 11.2929 10.4156 11.2928 10.4156L2.21191 19.3231L2.21113 19.3238C1.97268 19.5587 1.57975 19.5587 1.3413 19.3238L1.34107 19.3236L0.675173 18.6684C0.675143 18.6684 0.675114 18.6683 0.675084 18.6683C0.561189 18.5561 0.5 18.4097 0.5 18.2509C0.5 18.0921 0.561182 17.9458 0.675032 17.8338L0.675173 17.8337L8.27539 10.3518L8.63735 9.99552L8.27538 9.6392L0.683737 2.16612C0.683688 2.16607 0.683638 2.16602 0.683589 2.16597C0.569379 2.05338 0.508259 1.90693 0.508259 1.74847C0.508259 1.59017 0.569134 1.44419 0.683145 1.33157C0.683342 1.33137 0.683539 1.33118 0.683737 1.33098L1.35248 0.67721Z" fill="black" stroke="black"/>
</svg>
