<svg width="12" height="20" viewBox="0 0 12 20" fill="none" xmlns="http://www.w3.org/2000/svg">
<path d="M10.9971 19.6803L11.6672 19.0252C11.8764 18.819 11.9917 18.5447 11.9917 18.2515C11.9917 17.9585 11.8764 17.6839 11.6672 17.4777L4.07538 10.0045L11.6756 2.52262C11.8849 2.31677 12 2.04213 12 1.74912C12 1.45611 11.8849 1.18131 11.6756 0.975293L11.0096 0.320003C10.5765 -0.106668 9.87105 -0.106668 9.43796 0.320003L0.356449 9.22804C0.147337 9.4339 0 9.70821 0 10.0038V10.0072C0 10.3004 0.147502 10.5747 0.356449 10.7806L9.41335 19.6803C9.62246 19.8865 9.90954 19.9997 10.2072 20C10.505 20 10.7881 19.8865 10.9971 19.6803Z" fill="black"/>
</svg>
