<svg width="18" height="19" viewBox="0 0 18 19" fill="none" xmlns="http://www.w3.org/2000/svg">
<path d="M16.5 2H12.125V0.75C12.125 0.58424 12.0592 0.425268 11.9419 0.308058C11.8247 0.190848 11.6658 0.125 11.5 0.125H6.5C6.33424 0.125 6.17527 0.190848 6.05806 0.308058C5.94085 0.425268 5.875 0.58424 5.875 0.75V2H1.5C1.33424 2 1.17527 2.06585 1.05806 2.18306C0.940848 2.30027 0.875 2.45924 0.875 2.625V4.5C0.875 4.66576 0.940848 4.82473 1.05806 4.94194C1.17527 5.05915 1.33424 5.125 1.5 5.125H2.125V16.375C2.125 17.7537 3.24625 18.875 4.625 18.875H13.375C14.7537 18.875 15.875 17.7537 15.875 16.375V5.125H16.5C16.6658 5.125 16.8247 5.05915 16.9419 4.94194C17.0592 4.82473 17.125 4.66576 17.125 4.5V2.625C17.125 2.45924 17.0592 2.30027 16.9419 2.18306C16.8247 2.06585 16.6658 2 16.5 2ZM7.125 1.375H10.875V2H7.125V1.375ZM14.625 16.375C14.625 17.0644 14.0644 17.625 13.375 17.625H4.625C3.93563 17.625 3.375 17.0644 3.375 16.375V5.125H14.625V16.375ZM15.875 3.875H2.125V3.25H15.875V3.875ZM8.375 15.75V7C8.375 6.83424 8.44085 6.67527 8.55806 6.55806C8.67527 6.44085 8.83424 6.375 9 6.375C9.16576 6.375 9.32473 6.44085 9.44194 6.55806C9.55915 6.67527 9.625 6.83424 9.625 7V15.75C9.625 15.9158 9.55915 16.0747 9.44194 16.1919C9.32473 16.3092 9.16576 16.375 9 16.375C8.83424 16.375 8.67527 16.3092 8.55806 16.1919C8.44085 16.0747 8.375 15.9158 8.375 15.75ZM5.25 15.75V7C5.25 6.83424 5.31585 6.67527 5.43306 6.55806C5.55027 6.44085 5.70924 6.375 5.875 6.375C6.04076 6.375 6.19973 6.44085 6.31694 6.55806C6.43415 6.67527 6.5 6.83424 6.5 7V15.75C6.5 15.9158 6.43415 16.0747 6.31694 16.1919C6.19973 16.3092 6.04076 16.375 5.875 16.375C5.70924 16.375 5.55027 16.3092 5.43306 16.1919C5.31585 16.0747 5.25 15.9158 5.25 15.75ZM11.5 15.75V7C11.5 6.83424 11.5658 6.67527 11.6831 6.55806C11.8003 6.44085 11.9592 6.375 12.125 6.375C12.2908 6.375 12.4497 6.44085 12.5669 6.55806C12.6842 6.67527 12.75 6.83424 12.75 7V15.75C12.75 15.9158 12.6842 16.0747 12.5669 16.1919C12.4497 16.3092 12.2908 16.375 12.125 16.375C11.9592 16.375 11.8003 16.3092 11.6831 16.1919C11.5658 16.0747 11.5 15.9158 11.5 15.75Z" fill="#C7C7C7"/>
</svg>
