<svg width="25" height="24" viewBox="0 0 25 24" fill="none" xmlns="http://www.w3.org/2000/svg">
<path d="M18.3125 0H6.6875C3.2757 0 0.5 2.77566 0.5 6.1875V17.8125C0.5 21.2243 3.2757 24 6.6875 24H18.3125C21.7242 24 24.5 21.2243 24.5 17.8125V6.1875C24.5 2.77566 21.7243 0 18.3125 0ZM23 17.8125C22.9986 19.0553 22.5043 20.2468 21.6255 21.1255C20.7468 22.0043 19.5553 22.4986 18.3125 22.5H6.6875C5.44472 22.4986 4.25325 22.0043 3.37447 21.1255C2.4957 20.2468 2.00139 19.0553 2 17.8125V6.1875C2.00139 4.94472 2.4957 3.75325 3.37447 2.87447C4.25325 1.9957 5.44472 1.50139 6.6875 1.5H18.3125C19.5553 1.50139 20.7468 1.9957 21.6255 2.87447C22.5043 3.75325 22.9986 4.94472 23 6.1875V17.8125ZM18.6875 12C18.6875 12.1989 18.6085 12.3897 18.4678 12.5303C18.3272 12.671 18.1364 12.75 17.9375 12.75H13.25V17.4375C13.25 17.6364 13.171 17.8272 13.0303 17.9678C12.8897 18.1085 12.6989 18.1875 12.5 18.1875C12.3011 18.1875 12.1103 18.1085 11.9697 17.9678C11.829 17.8272 11.75 17.6364 11.75 17.4375V12.75H7.0625C6.86359 12.75 6.67282 12.671 6.53217 12.5303C6.39152 12.3897 6.3125 12.1989 6.3125 12C6.3125 11.8011 6.39152 11.6103 6.53217 11.4697C6.67282 11.329 6.86359 11.25 7.0625 11.25H11.75V6.5625C11.75 6.36359 11.829 6.17282 11.9697 6.03217C12.1103 5.89152 12.3011 5.8125 12.5 5.8125C12.6989 5.8125 12.8897 5.89152 13.0303 6.03217C13.171 6.17282 13.25 6.36359 13.25 6.5625V11.25H17.9375C18.1364 11.25 18.3272 11.329 18.4678 11.4697C18.6085 11.6103 18.6875 11.8011 18.6875 12Z" fill="#E82424"/>
</svg>
