<svg width="20" height="20" viewBox="0 0 20 20" fill="none" xmlns="http://www.w3.org/2000/svg">
<path d="M19.1666 13.6667C19.1666 13.4236 19.07 13.1904 18.8981 13.0185C18.7262 12.8466 18.493 12.75 18.2499 12.75C18.0068 12.75 17.7736 12.8466 17.6017 13.0185C17.4298 13.1904 17.3333 13.4236 17.3333 13.6667V16.4167C17.3333 16.6598 17.2367 16.8929 17.0648 17.0648C16.8929 17.2368 16.6597 17.3333 16.4166 17.3333H3.58325C3.34014 17.3333 3.10698 17.2368 2.93507 17.0648C2.76316 16.8929 2.66659 16.6598 2.66659 16.4167V13.6667C2.66659 13.4236 2.57001 13.1904 2.3981 13.0185C2.22619 12.8466 1.99303 12.75 1.74992 12.75C1.5068 12.75 1.27365 12.8466 1.10174 13.0185C0.929829 13.1904 0.833252 13.4236 0.833252 13.6667V16.4167C0.833252 17.146 1.12298 17.8455 1.63871 18.3612C2.15443 18.8769 2.85391 19.1667 3.58325 19.1667H16.4166C17.1459 19.1667 17.8454 18.8769 18.3611 18.3612C18.8769 17.8455 19.1666 17.146 19.1666 16.4167V13.6667Z" fill="#E82424"/>
<path d="M9.08318 1.74967V12.383L7.9016 11.1913C7.72776 11.037 7.50176 10.9544 7.26934 10.9604C7.03692 10.9663 6.81546 11.0604 6.64978 11.2235C6.4841 11.3866 6.3866 11.6066 6.377 11.8389C6.36741 12.0712 6.44644 12.2985 6.5981 12.4747L9.3481 15.2522C9.43335 15.3384 9.53485 15.4068 9.64672 15.4535C9.75859 15.5002 9.87862 15.5242 9.99985 15.5242C10.1211 15.5242 10.2411 15.5002 10.353 15.4535C10.4649 15.4068 10.5664 15.3384 10.6516 15.2522L13.4016 12.4747C13.5533 12.2985 13.6323 12.0712 13.6227 11.8389C13.6131 11.6066 13.5156 11.3866 13.3499 11.2235C13.1842 11.0604 12.9628 10.9663 12.7304 10.9604C12.4979 10.9544 12.2719 11.037 12.0981 11.1913L10.9165 12.383V1.74967C10.9165 1.50656 10.8199 1.2734 10.648 1.10149C10.4761 0.929585 10.243 0.833008 9.99985 0.833008C9.75673 0.833008 9.52358 0.929585 9.35167 1.10149C9.17976 1.2734 9.08318 1.50656 9.08318 1.74967Z" fill="#E82424"/>
</svg>
