<svg width="16" height="17" viewBox="0 0 16 17" fill="none" xmlns="http://www.w3.org/2000/svg">
<path d="M13.9662 8.70502C13.9656 10.2795 13.3398 11.7894 12.2265 12.9027C11.1131 14.0161 9.60327 14.6419 8.02875 14.6425C6.45423 14.6419 4.94439 14.0161 3.83103 12.9027C2.71768 11.7894 2.09191 10.2795 2.09125 8.70502C2.09191 7.1305 2.71768 5.62066 3.83103 4.5073C4.94439 3.39395 6.45423 2.76818 8.02875 2.76752C8.88869 2.767 9.73844 2.95369 10.519 3.3146C11.2995 3.67551 11.9921 4.20201 12.5487 4.85752C12.71 5.04682 12.9399 5.16429 13.1878 5.1841C13.4357 5.20391 13.6813 5.12443 13.8706 4.96314C14.0599 4.80186 14.1774 4.57198 14.1972 4.32408C14.217 4.07618 14.1375 3.83057 13.9762 3.64127C13.2436 2.77917 12.3321 2.08678 11.3051 1.61213C10.2781 1.13748 9.16013 0.891934 8.02875 0.892518C5.95705 0.893512 3.97049 1.71693 2.50557 3.18184C1.04066 4.64676 0.217241 6.63332 0.216248 8.70502C0.216248 13.0175 3.71625 16.5175 8.02875 16.5175C12.34 16.5175 15.8412 13.0175 15.8412 8.70502C15.8412 8.45638 15.7425 8.21792 15.5667 8.04211C15.3908 7.86629 15.1524 7.76752 14.9037 7.76752C14.6551 7.76752 14.4167 7.86629 14.2408 8.04211C14.065 8.21792 13.9662 8.45638 13.9662 8.70502Z" fill="#C7C7C7"/>
<path d="M12.7162 1.42001V4.01751H10.1175C9.86885 4.01751 9.63039 4.11629 9.45458 4.2921C9.27876 4.46792 9.17999 4.70637 9.17999 4.95501C9.17999 5.20365 9.27876 5.44211 9.45458 5.61793C9.63039 5.79374 9.86885 5.89251 10.1175 5.89251H13.6537C13.9024 5.89251 14.1408 5.79374 14.3167 5.61793C14.4925 5.44211 14.5912 5.20365 14.5912 4.95501V1.42001C14.5912 1.17137 14.4925 0.932916 14.3167 0.757101C14.1408 0.581285 13.9024 0.482513 13.6537 0.482513C13.4051 0.482513 13.1666 0.581285 12.9908 0.757101C12.815 0.932916 12.7162 1.17137 12.7162 1.42001Z" fill="#C7C7C7"/>
</svg>
